<svg xmlns="http://www.w3.org/2000/svg" xml:space="preserve" viewBox="0 0 511.99 511.99"><path fill="#ed5564" d="M491.86 156.35a255.19 255.19 0 0 0-54.84-81.37A255.45 255.45 0 0 0 255.99 0c-34.55 0-68.08 6.77-99.64 20.13a255.22 255.22 0 0 0-81.38 54.85A255.23 255.23 0 0 0 0 255.99a255.22 255.22 0 0 0 74.97 181 254.94 254.94 0 0 0 81.38 54.87 254.51 254.51 0 0 0 99.64 20.12A255.24 255.24 0 0 0 437.01 437a255.21 255.21 0 0 0 74.97-181c0-34.56-6.78-68.09-20.12-99.65z"/><path fill="#e6e9ed" d="M.1 263.18A255.22 255.22 0 0 0 74.97 437a254.94 254.94 0 0 0 81.38 54.86 254.51 254.51 0 0 0 99.64 20.12A255.24 255.24 0 0 0 437.01 437a255.21 255.21 0 0 0 54.85-81.36 253.8 253.8 0 0 0 20.03-92.46H.1z"/><path fill="#434a54" d="M510.76 281.21a260.21 260.21 0 0 0-.3-53.5 1272.37 1272.37 0 0 1-54 7.05c-43.7 4.82-113.9 10.57-200.47 10.57-86.55 0-156.77-5.75-200.45-10.57-23.03-2.54-41.28-5.1-54-7.06a259.64 259.64 0 0 0-.32 53.51c41.53 6.25 133.03 17.44 254.77 17.44s213.24-11.19 254.77-17.44z"/><path fill="#e6e9ed" d="M309.33 266.66a53.34 53.34 0 1 1-106.68-.02 53.34 53.34 0 0 1 106.68.02z"/><path fill="#434a54" d="M256 170.66c-52.94 0-96 43.07-96 96s43.06 95.98 96 95.98 95.99-43.06 95.99-95.98c0-52.93-43.06-96-96-96zm0 138.67a42.73 42.73 0 0 1-42.67-42.67 42.71 42.71 0 0 1 42.66-42.67 42.7 42.7 0 0 1 42.66 42.67 42.71 42.71 0 0 1-42.66 42.67z"/><path fill="#fff" d="M491.86 156.35a255.19 255.19 0 0 0-54.84-81.37A255.45 255.45 0 0 0 245.32.22a253.78 253.78 0 0 1 88.98 19.9 254.94 254.94 0 0 1 81.37 54.86 255.18 255.18 0 0 1 74.97 181.01 255.21 255.21 0 0 1-74.97 181 254.68 254.68 0 0 1-81.37 54.87 253.94 253.94 0 0 1-88.97 19.9 254.51 254.51 0 0 0 110.32-19.9A255.24 255.24 0 0 0 437.01 437a255.21 255.21 0 0 0 74.96-181c0-34.56-6.78-68.09-20.12-99.65z" opacity=".2"/><path d="M20.13 355.64A255.22 255.22 0 0 0 74.97 437a254.94 254.94 0 0 0 81.38 54.86 254.51 254.51 0 0 0 110.3 19.9 254 254 0 0 1-88.97-19.9A254.95 254.95 0 0 1 96.3 437a255.26 255.26 0 0 1-74.97-181A255.1 255.1 0 0 1 96.3 74.98a255.07 255.07 0 0 1 81.36-54.87 253.82 253.82 0 0 1 89-19.88 254.37 254.37 0 0 0-110.3 19.9 255.12 255.12 0 0 0-81.39 54.86 255.1 255.1 0 0 0-54.85 81.37A254.4 254.4 0 0 0 0 255.99c0 34.56 6.77 68.1 20.13 99.65z" opacity=".1"/></svg>